<svg width="24" height="24" viewBox="0 0 24 24" fill="none" xmlns="http://www.w3.org/2000/svg">
<path d="M8.54005 9.12488V5.20988C8.53897 4.95823 8.62581 4.7141 8.78556 4.51965C8.94532 4.3252 9.16797 4.19265 9.41505 4.14488L19 2.26988C19.1571 2.23875 19.3191 2.24292 19.4744 2.2821C19.6296 2.32128 19.7742 2.39449 19.8976 2.49642C20.0211 2.59836 20.1204 2.72646 20.1882 2.87148C20.2561 3.01649 20.2909 3.17478 20.2901 3.33488V6.83488" stroke="black" stroke-linecap="round" stroke-linejoin="round"/>
<path d="M8.54005 9.78508C8.53897 9.53342 8.62581 9.28929 8.78556 9.09484C8.94532 8.9004 9.16797 8.76784 9.41505 8.72008L19 6.84508C19.1567 6.81403 19.3183 6.8181 19.4731 6.857C19.628 6.89589 19.7723 6.96865 19.8957 7.07003C20.0191 7.17141 20.1184 7.29889 20.1866 7.44328C20.2548 7.58767 20.2901 7.74539 20.29 7.90508M20.275 6.82508V16.1051M8.54005 9.12508V19.3401" stroke="black" stroke-linecap="round" stroke-linejoin="round"/>
<path d="M6.13461 21.7499C7.46562 21.7499 8.54461 20.6709 8.54461 19.3399C8.54461 18.0089 7.46562 16.9299 6.13461 16.9299C4.8036 16.9299 3.72461 18.0089 3.72461 19.3399C3.72461 20.6709 4.8036 21.7499 6.13461 21.7499Z" stroke="black" stroke-linecap="round" stroke-linejoin="round"/>
<path d="M17.8651 18.5151C19.1961 18.5151 20.2751 17.4361 20.2751 16.1051C20.2751 14.7741 19.1961 13.6951 17.8651 13.6951C16.5341 13.6951 15.4551 14.7741 15.4551 16.1051C15.4551 17.4361 16.5341 18.5151 17.8651 18.5151Z" stroke="black" stroke-linecap="round" stroke-linejoin="round"/>
</svg>
