<svg width="22" height="26" viewBox="0 0 22 26" fill="none" xmlns="http://www.w3.org/2000/svg">
<path d="M7.82813 9.9019V5.9027C7.82714 5.64564 7.90674 5.39625 8.05319 5.19762C8.19963 4.999 8.40372 4.86359 8.63022 4.8148L17.4165 2.89948C17.5604 2.86767 17.7089 2.87194 17.8512 2.91196C17.9935 2.95198 18.1261 3.02676 18.2393 3.13089C18.3524 3.23501 18.4434 3.36588 18.5056 3.51401C18.5679 3.66214 18.5997 3.82383 18.599 3.98738V7.56265" stroke="#91ACE6" stroke-linecap="round" stroke-linejoin="round"/>
<path d="M7.82813 10.576C7.82714 10.319 7.90674 10.0696 8.05319 9.87096C8.19963 9.67233 8.40372 9.53693 8.63022 9.48814L17.4165 7.57281C17.5601 7.5411 17.7082 7.54526 17.8501 7.58499C17.9921 7.62473 18.1244 7.69905 18.2375 7.80261C18.3506 7.90617 18.4417 8.03638 18.5042 8.18388C18.5667 8.33138 18.5991 8.49249 18.599 8.65561M18.5852 7.55238V17.032M7.82813 9.90185V20.3365" stroke="#91ACE6" stroke-linecap="round" stroke-linejoin="round"/>
<path d="M5.62421 22.7982C6.8443 22.7982 7.83337 21.696 7.83337 20.3363C7.83337 18.9767 6.8443 17.8745 5.62421 17.8745C4.40412 17.8745 3.41504 18.9767 3.41504 20.3363C3.41504 21.696 4.40412 22.7982 5.62421 22.7982Z" stroke="#91ACE6" stroke-linecap="round" stroke-linejoin="round"/>
<path d="M16.3762 19.494C17.5962 19.494 18.5853 18.3918 18.5853 17.0321C18.5853 15.6725 17.5962 14.5703 16.3762 14.5703C15.1561 14.5703 14.167 15.6725 14.167 17.0321C14.167 18.3918 15.1561 19.494 16.3762 19.494Z" stroke="#91ACE6" stroke-linecap="round" stroke-linejoin="round"/>
</svg>
