<svg width="25" height="25" viewBox="0 0 25 25" fill="none" xmlns="http://www.w3.org/2000/svg">
<path d="M19.205 21.8094H5.7946C5.10393 21.8094 4.44155 21.5351 3.95317 21.0467C3.4648 20.5583 3.19043 19.8959 3.19043 19.2053V5.79484C3.19043 5.10417 3.4648 4.44179 3.95317 3.95342C4.44155 3.46504 5.10393 3.19067 5.7946 3.19067H19.205C19.8957 3.19067 20.5581 3.46504 21.0464 3.95342C21.5348 4.44179 21.8092 5.10417 21.8092 5.79484V19.2053C21.8092 19.8959 21.5348 20.5583 21.0464 21.0467C20.5581 21.5351 19.8957 21.8094 19.205 21.8094ZM5.7946 4.23234C5.3802 4.23234 4.98277 4.39696 4.68974 4.68999C4.39672 4.98301 4.2321 5.38044 4.2321 5.79484V19.2053C4.2321 19.6197 4.39672 20.0171 4.68974 20.3101C4.98277 20.6031 5.3802 20.7678 5.7946 20.7678H19.205C19.6194 20.7678 20.0168 20.6031 20.3099 20.3101C20.6029 20.0171 20.7675 19.6197 20.7675 19.2053V5.79484C20.7675 5.38044 20.6029 4.98301 20.3099 4.68999C20.0168 4.39696 19.6194 4.23234 19.205 4.23234H5.7946Z" fill="black"/>
<path d="M12.5 17.2853C11.5535 17.2843 10.6286 17.0027 9.8421 16.4761C9.05563 15.9494 8.44295 15.2015 8.08151 14.3267C7.72006 13.452 7.62608 12.4897 7.81143 11.5615C7.99679 10.6333 8.45317 9.78095 9.12288 9.11212C9.79259 8.44328 10.6456 7.98802 11.574 7.80387C12.5024 7.61972 13.4645 7.71496 14.3388 8.07755C15.2131 8.44014 15.9603 9.05379 16.4859 9.84095C17.0115 10.6281 17.2919 11.5534 17.2917 12.4999C17.29 13.7696 16.7844 14.9868 15.886 15.8841C14.9876 16.7813 13.7697 17.2853 12.5 17.2853ZM12.5 8.7499C11.7598 8.75093 11.0365 8.9713 10.4215 9.38318C9.80644 9.79506 9.32727 10.38 9.04448 11.064C8.76169 11.7481 8.68797 12.5006 8.83263 13.2265C8.97729 13.9525 9.33384 14.6193 9.85725 15.1427C10.3807 15.6661 11.0474 16.0226 11.7734 16.1673C12.4993 16.3119 13.2518 16.2382 13.9359 15.9554C14.6199 15.6726 15.2048 15.1935 15.6167 14.5784C16.0286 13.9634 16.249 13.2401 16.25 12.4999C16.25 11.5053 15.8549 10.5515 15.1517 9.84825C14.4484 9.14499 13.4946 8.7499 12.5 8.7499Z" fill="black"/>
<path d="M17.9167 8.23446C18.5351 8.23446 19.0365 7.73311 19.0365 7.11466C19.0365 6.49622 18.5351 5.99487 17.9167 5.99487C17.2982 5.99487 16.7969 6.49622 16.7969 7.11466C16.7969 7.73311 17.2982 8.23446 17.9167 8.23446Z" fill="black"/>
</svg>
