<svg xmlns="http://www.w3.org/2000/svg" xmlns:xlink="http://www.w3.org/1999/xlink" width="142" height="32"><defs><path id="a" d="M0 32h142V0H0z"/></defs><g fill="none" fill-rule="evenodd"><path fill="#000" d="m141.86 14 .14-.32A72.52 72.52 0 0 1 129.32 3h-.64A72.52 72.52 0 0 1 116 13.68l.14.32A73.54 73.54 0 0 0 129 3.1 73.5 73.5 0 0 0 141.86 14"/><mask id="b" fill="#fff"><use xlink:href="#a"/></mask><path fill="#000" d="M121 12.65h16v-.3h-16zm8.89 5.73H142V18h-26v.38h9.69c-1.16 4.31-2.5 8.36-4 12.16-2.01.14-2.1.23-2.85.28v.35c2.41-.12 4.7-.32 6.98-.6h.09c4.05-.5 8.1-1.23 12.8-2.22L140.7 32l.2-.17a217.02 217.02 0 0 0-5.7-10.43l-.22.25c1.35 2.34 2.54 4.47 3.57 6.39-4.29.9-8.45 1.6-12.49 2.08l3.84-11.74zM93.19 1h-.33v6.05h-4.84v.35h9.71a33.42 33.42 0 0 1-4.29 8.4c-1.64 2.24-4.02 4.23-6.44 5.97l.15.31a31.07 31.07 0 0 0 5.71-4.97V32h.33V16.76c.04-.1.08-.17.13-.22.05-.06.1-.17.16-.34 2.13 2.16 2.18 2.14 3.83 4.09l.2-.24c-1.41-1.72-1.45-1.69-3.79-4.05A33.79 33.79 0 0 0 98 7.54v-.49h-4.81V1zm15.39 7.17h4.56v-.4h-4.56V0h-5.34v7.77H99.2v.4h4.05V29.6H98v.4h18v-.4h-7.42zM65.51 4.11h10.3a44.22 44.22 0 0 1-3.71 5.4H61.8a33.12 33.12 0 0 0 3.71-5.4zM61.97 19h10.01V9.85h-10V19zm21.72 12.7H61.97V19.37H81.7v1.79h.32V9.5H72.5a43.82 43.82 0 0 0 3.62-5.28v-.46h-10.4c.47-.93.87-1.82 1.17-2.65L66.63 1A30 30 0 0 1 58 12.87l.17.28c1.02-.86 2.4-2.3 3.52-3.5v8.15h-.04V32H84v-8.79h-.31v8.48zm-49.56-7.88h9.23v-5.76h-9.23v5.76zm0-6.15h9.23v-5.4h-9.23v5.4zm9.65-9.05h4.27v-4.7h-4.27v4.7zm2.74 15.6h6.65V11.86h-9.52V9.01h12.6v-.4h-7.91v-4.7h6.43v-.35h-6.43V.31h-.29v3.25h-4.27V0h-5.25v3.56h-6.29v.36h6.29v4.7h-7.78V9h12.61v2.86h-9.52V24.2h6.64A15.18 15.18 0 0 0 30 31.85l.27.15c2.6-4.8 7.66-7.77 13.23-7.77S54.14 27.21 56.73 32l.27-.15c-2.17-4.01-6.03-6.77-10.48-7.64zM0 28.9l.24.1c.96-3.4 1.54-6.72 1.76-9.96L1.73 19A47.93 47.93 0 0 1 0 28.9" mask="url(#b)"/><path fill="#000" d="m10.32 15.67.37 1.96.31-.07A56.86 56.86 0 0 0 8.88 9.4l-.25.13a49.72 49.72 0 0 1 1.58 5.8l-7.98.52a99.3 99.3 0 0 0 7.56-12.5l-.29-.17c-1.48 2.95-3.16 5.9-5.04 8.87-.25-.46-.98-1.98-2.2-4.55A95 95 0 0 0 6.18.17L5.89 0a110.57 110.57 0 0 1-3.77 7.18 140.24 140.24 0 0 1-1-1.99l-.33-.6-.2.17c.98 1.93 2.2 4.45 3.64 7.56a75.86 75.86 0 0 1-2.43 3.55l-1.8.14.06.35 3.54-.23V31h3.88V15.86l2.84-.2zm15.76.39-.26-.1A29.75 29.75 0 0 1 22 22.68l-.23-.51v-8.12h5.02v-.39H24.6V2h-5.38v.02h-6.73v.35h6.73v5.37h-4.94v.39h4.94v5.54h-7.46v.39h5.97v7.58a39.48 39.48 0 0 1-7.73 8l.15.28a41.32 41.32 0 0 0 7.58-7.75v9.51h-2.92V32h6.96v-9.01c.3.6.6 1.19.92 1.74A32.47 32.47 0 0 0 27.82 31l.18-.28a32.6 32.6 0 0 1-5.82-7.69 27.5 27.5 0 0 0 3.9-6.98" mask="url(#b)"/><path fill="#000" d="M15 20.83A67.43 67.43 0 0 0 12.2 15l-.2.2c1 1.87 1.92 3.8 2.77 5.8l.23-.17zM9.25 19l-.25.08c.39 2.6.56 4.09.75 6.92l.25-.04c-.21-2.9-.38-4.4-.75-6.96" mask="url(#b)"/></g></svg>