<!--?xml version="1.0" encoding="utf-8"?-->
<!-- Svg Vector Icons : http://www.onlinewebfonts.com/icon -->

<svg version="1.1" xmlns="http://www.w3.org/2000/svg" xmlns:xlink="http://www.w3.org/1999/xlink" x="0px" y="0px" viewBox="0 0 256 256" enable-background="new 0 0 256 256" xml:space="preserve">
<metadata> Svg Vector Icons : http://www.onlinewebfonts.com/icon </metadata>
<g><g><g><path fill="#ffffff" data-title="Layer 0" xs="0" d="M115.5,10.5C81.6,14,49.2,33.5,30,62.2c-13.3,19.9-20,41.8-20,65.6c0,19,3.8,35.6,12,52.1c15.5,31.5,43.3,54.1,76.9,62.7c10.5,2.6,17.4,3.5,29.1,3.5c11.6,0,18.4-0.8,29.1-3.5c43.2-11,76.5-45.3,86.3-88.9c2.5-11.3,3.4-28,2-39C238,54.2,187.3,9.4,127,10C123,10,117.8,10.3,115.5,10.5z M144.3,13.8c37.9,5.6,70.4,29.2,87.1,63.2c7.7,15.7,11.3,29.9,11.8,47.1c1.1,32.7-10.5,62.2-33.7,85.4c-18.7,18.7-42.8,30.4-68.7,33.3c-6.3,0.7-19.7,0.7-25.6,0c-39.6-4.6-73.5-28.6-90.9-64.4c-7.3-15-10.9-29.2-11.6-46.1C11.1,91.8,31.1,53.5,65.8,30.8c6.4-4.2,18.3-9.8,26.1-12.4c7.7-2.5,18.2-4.7,25.6-5.5C124.1,12.4,137.5,12.8,144.3,13.8z"/><path fill="#FFFFFF" data-title="Layer 1" xs="1" d="M101.2,129.7c0,23,0.2,41.7,0.4,41.6c2.6-1.5,68.3-40.9,68.7-41.3c0.5-0.5-7.2-5.3-33.8-21.2c-19-11.4-34.6-20.7-34.9-20.8C101.4,87.9,101.2,105.1,101.2,129.7z M135.1,111.1c16.7,10,30.3,18.3,30.3,18.5c-0.1,0.3-47.3,28.7-58.6,35.4l-2.5,1.5v-36.7c0-20.2,0.2-36.7,0.3-36.7C104.7,93,118.5,101.1,135.1,111.1z"/></g></g></g>
</svg>