<svg width="256" height="256" viewBox="0 0 256 256" fill="none" xmlns="http://www.w3.org/2000/svg">
<path d="M128 28C108.222 28 88.8879 33.8649 72.443 44.853C55.9981 55.8412 43.1809 71.459 35.6121 89.7317C28.0433 108.004 26.063 128.111 29.9215 147.509C33.78 166.907 43.3041 184.725 57.2894 198.711C71.2746 212.696 89.0929 222.22 108.491 226.079C127.889 229.937 147.996 227.957 166.268 220.388C184.541 212.819 200.159 200.002 211.147 183.557C222.135 167.112 228 147.778 228 128C227.971 101.487 217.426 76.0688 198.679 57.3215C179.931 38.5742 154.513 28.0291 128 28ZM128 220C109.804 220 92.0169 214.604 76.8876 204.495C61.7583 194.386 49.9664 180.018 43.0031 163.207C36.0399 146.396 34.218 127.898 37.7678 110.052C41.3176 92.2054 50.0798 75.8126 62.9462 62.9462C75.8127 50.0797 92.2055 41.3176 110.052 37.7678C127.898 34.2179 146.396 36.0398 163.207 43.0031C180.018 49.9663 194.386 61.7582 204.495 76.8875C214.604 92.0169 220 109.804 220 128C219.974 152.392 210.272 175.777 193.025 193.025C175.777 210.272 152.392 219.974 128 220ZM162.22 124.67L114.22 92.67C113.618 92.268 112.917 92.0371 112.194 92.0021C111.47 91.967 110.751 92.1291 110.112 92.471C109.474 92.8129 108.94 93.3217 108.568 93.9433C108.196 94.5648 108 95.2757 108 96V160C107.999 160.724 108.195 161.435 108.567 162.057C108.938 162.679 109.472 163.188 110.11 163.53C110.749 163.872 111.469 164.034 112.193 163.999C112.917 163.964 113.617 163.733 114.22 163.33L162.22 131.33C162.769 130.965 163.219 130.47 163.53 129.889C163.841 129.308 164.004 128.659 164.004 128C164.004 127.341 163.841 126.692 163.53 126.111C163.219 125.53 162.769 125.035 162.22 124.67ZM116 152.53V103.47L152.79 128L116 152.53Z" fill="white"/>
</svg>
