<svg width="136" height="136" viewBox="0 0 136 136" fill="none" xmlns="http://www.w3.org/2000/svg">
<path d="M96.5069 71.0068L54.0069 113.507C53.4125 114.102 52.6549 114.507 51.8301 114.671C51.0052 114.836 50.1501 114.752 49.3731 114.43C48.5961 114.108 47.9321 113.562 47.4652 112.863C46.9982 112.163 46.7493 111.341 46.75 110.5V25.4999C46.7493 24.6589 46.9982 23.8365 47.4652 23.137C47.9321 22.4375 48.5961 21.8922 49.3731 21.5703C50.1501 21.2483 51.0052 21.1642 51.8301 21.3284C52.6549 21.4927 53.4125 21.898 54.0069 22.4931L96.5069 64.9931C96.902 65.3878 97.2155 65.8565 97.4294 66.3724C97.6433 66.8884 97.7533 67.4414 97.7533 67.9999C97.7533 68.5584 97.6433 69.1115 97.4294 69.6274C97.2155 70.1434 96.902 70.6121 96.5069 71.0068Z" fill="white"/>
</svg>
