<svg width="24" height="29" viewBox="0 0 24 29" fill="none" xmlns="http://www.w3.org/2000/svg">
<path d="M23.8148 12.4246C23.7561 12.4832 23.6865 12.5297 23.6098 12.5614C23.5331 12.5931 23.4509 12.6095 23.3679 12.6095C23.285 12.6095 23.2028 12.5931 23.1261 12.5614C23.0494 12.5297 22.9798 12.4832 22.9211 12.4246L12.6315 2.15339V28.3696C12.6315 28.5368 12.5649 28.6971 12.4465 28.8154C12.3281 28.9336 12.1674 29 11.9999 29C11.8324 29 11.6718 28.9336 11.5533 28.8154C11.4349 28.6971 11.3684 28.5368 11.3684 28.3696V2.15339L1.07873 12.4246C1.02006 12.4831 0.950395 12.5296 0.873729 12.5613C0.797062 12.593 0.714891 12.6093 0.631908 12.6093C0.548924 12.6093 0.466754 12.593 0.390087 12.5613C0.31342 12.5296 0.243759 12.4831 0.185081 12.4246C0.126403 12.366 0.0798572 12.2965 0.0481008 12.2199C0.0163445 12.1434 0 12.0614 0 11.9786C0 11.8957 0.0163445 11.8137 0.0481008 11.7372C0.0798572 11.6606 0.126403 11.5911 0.185081 11.5325L11.5531 0.184895C11.6118 0.12628 11.6814 0.0797811 11.7581 0.0480555C11.8347 0.0163298 11.9169 0 11.9999 0C12.0829 0 12.1651 0.0163298 12.2418 0.0480555C12.3184 0.0797811 12.3881 0.12628 12.4468 0.184895L23.8148 11.5325C23.8735 11.5911 23.9201 11.6606 23.9519 11.7371C23.9836 11.8137 24 11.8957 24 11.9786C24 12.0614 23.9836 12.1434 23.9519 12.22C23.9201 12.2965 23.8735 12.366 23.8148 12.4246Z" fill="#444444"/>
</svg>
