<svg width="256" height="256" viewBox="0 0 256 256" fill="none" xmlns="http://www.w3.org/2000/svg">
<path d="M205.66 194.34C206.403 195.083 206.992 195.966 207.395 196.937C207.797 197.908 208.004 198.949 208.004 200C208.004 201.051 207.797 202.092 207.395 203.063C206.992 204.034 206.403 204.917 205.66 205.66C204.916 206.403 204.034 206.993 203.063 207.395C202.092 207.797 201.051 208.005 200 208.005C198.948 208.005 197.908 207.797 196.936 207.395C195.965 206.993 195.083 206.403 194.34 205.66L128 139.31L61.6596 205.66C60.1584 207.161 58.1225 208.005 55.9996 208.005C53.8767 208.005 51.8407 207.161 50.3396 205.66C48.8384 204.159 47.9951 202.123 47.9951 200C47.9951 197.877 48.8384 195.841 50.3396 194.34L116.69 128L50.3396 61.6601C48.8384 60.1589 47.9951 58.123 47.9951 56.0001C47.9951 53.8771 48.8384 51.8412 50.3396 50.3401C51.8407 48.8389 53.8767 47.9956 55.9996 47.9956C58.1225 47.9956 60.1584 48.8389 61.6596 50.3401L128 116.69L194.34 50.3401C195.841 48.8389 197.877 47.9956 200 47.9956C202.122 47.9956 204.158 48.8389 205.66 50.3401C207.161 51.8412 208.004 53.8771 208.004 56.0001C208.004 58.123 207.161 60.1589 205.66 61.6601L139.31 128L205.66 194.34Z" fill="white"/>
</svg>
