<svg width="138" height="138" viewBox="0 0 138 138" fill="none" xmlns="http://www.w3.org/2000/svg">
<path d="M109.338 106.287C109.743 106.692 109.97 107.241 109.97 107.813C109.97 108.385 109.743 108.934 109.338 109.338C108.934 109.743 108.385 109.97 107.813 109.97C107.241 109.97 106.692 109.743 106.287 109.338L69.0002 72.0513L31.7133 109.338C31.3087 109.743 30.7599 109.97 30.1877 109.97C29.6155 109.97 29.0668 109.743 28.6622 109.338C28.2576 108.934 28.0303 108.385 28.0303 107.813C28.0303 107.241 28.2576 106.692 28.6622 106.287L65.9491 69.0002L28.6622 31.7133C28.2576 31.3087 28.0303 30.7599 28.0303 30.1877C28.0303 29.6155 28.2576 29.0668 28.6622 28.6622C29.0668 28.2576 29.6155 28.0303 30.1877 28.0303C30.7599 28.0303 31.3087 28.2576 31.7133 28.6622L69.0002 65.9491L106.287 28.6622C106.488 28.4618 106.725 28.3029 106.987 28.1945C107.249 28.0861 107.529 28.0303 107.813 28.0303C108.096 28.0303 108.377 28.0861 108.638 28.1945C108.9 28.3029 109.138 28.4618 109.338 28.6622C109.539 28.8625 109.698 29.1003 109.806 29.3621C109.914 29.6239 109.97 29.9044 109.97 30.1877C109.97 30.471 109.914 30.7516 109.806 31.0133C109.698 31.2751 109.539 31.5129 109.338 31.7133L72.0513 69.0002L109.338 106.287Z" fill="white"/>
</svg>
