<svg width="24" height="24" viewBox="0 0 24 24" fill="none" xmlns="http://www.w3.org/2000/svg">
<path d="M21.5561 7.19703C21.4422 6.77367 21.219 6.38766 20.909 6.07764C20.599 5.76762 20.213 5.54447 19.7896 5.43053C18.6326 4.98353 7.42362 4.76453 4.17162 5.44303C3.7482 5.55702 3.36215 5.78024 3.05212 6.09035C2.7421 6.40046 2.51899 6.78658 2.40512 7.21003C1.88262 9.50153 1.84312 14.4555 2.41812 16.7985C2.53206 17.2219 2.75521 17.6079 3.06523 17.9179C3.37525 18.2279 3.76126 18.4511 4.18462 18.565C6.47612 19.0925 17.3701 19.1665 19.8026 18.565C20.226 18.4511 20.612 18.2279 20.922 17.9179C21.232 17.6079 21.4552 17.2219 21.5691 16.7985C22.1261 14.302 22.1656 9.65503 21.5561 7.19703Z" stroke="black" stroke-linecap="round" stroke-linejoin="round"/>
<path d="M15.2831 11.9975L10.0596 9.00195V14.993L15.2831 11.9975Z" stroke="black" stroke-linecap="round" stroke-linejoin="round"/>
</svg>
